<svg width="114" height="65" viewBox="0 0 114 65" fill="none" xmlns="http://www.w3.org/2000/svg">
<g clip-path="url(#clip0_21_25)">
<mask id="mask0_21_25" style="mask-type:luminance" maskUnits="userSpaceOnUse" x="0" y="0" width="62" height="65">
<path d="M61.919 18.6879C58.8863 12.2285 53.812 6.94677 47.4792 3.65784C41.1465 0.368911 33.9073 -0.744365 26.8789 0.489831C19.8506 1.72403 13.4238 5.23709 8.59046 10.4868C3.75711 15.7365 0.785883 22.4311 0.135363 29.5372C-0.515157 36.6434 1.19119 43.7662 4.99105 49.8062C8.79091 55.8463 14.473 60.4678 21.1604 62.9576C27.8479 65.4474 35.1689 65.667 41.9936 63.5825C48.8182 61.498 54.7671 57.2254 58.9222 51.424L50.4118 45.3287C47.5951 49.2615 43.5622 52.158 38.9358 53.5711C34.3093 54.9841 29.3463 54.8353 24.8128 53.1474C20.2794 51.4596 16.4274 48.3266 13.8514 44.232C11.2755 40.1374 10.1187 35.3089 10.5597 30.4915C11.0007 25.6742 13.0149 21.1359 16.2915 17.5771C19.5681 14.0182 23.9249 11.6367 28.6894 10.8C33.454 9.9634 38.3615 10.7181 42.6545 12.9477C46.9476 15.1772 50.3875 18.7578 52.4433 23.1367L61.919 18.6879Z" fill="white"/>
</mask>
<g mask="url(#mask0_21_25)">
<path d="M61.919 18.6879C58.8863 12.2285 53.812 6.94677 47.4792 3.65784C41.1465 0.368911 33.9073 -0.744365 26.8789 0.489831C19.8506 1.72403 13.4238 5.23709 8.59046 10.4868C3.75711 15.7365 0.785883 22.4311 0.135363 29.5372C-0.515157 36.6434 1.19119 43.7662 4.99105 49.8062C8.79091 55.8463 14.473 60.4678 21.1604 62.9576C27.8479 65.4474 35.1689 65.667 41.9936 63.5825C48.8182 61.498 54.7671 57.2254 58.9222 51.424L50.4118 45.3287C47.5951 49.2615 43.5622 52.158 38.9358 53.5711C34.3093 54.9841 29.3463 54.8353 24.8128 53.1474C20.2794 51.4596 16.4274 48.3266 13.8514 44.232C11.2755 40.1374 10.1187 35.3089 10.5597 30.4915C11.0007 25.6742 13.0149 21.1359 16.2915 17.5771C19.5681 14.0182 23.9249 11.6367 28.6894 10.8C33.454 9.9634 38.3615 10.7181 42.6545 12.9477C46.9476 15.1772 50.3875 18.7578 52.4433 23.1367L61.919 18.6879Z" fill="white" stroke="#60A5FA" stroke-width="28" stroke-miterlimit="5.25027"/>
</g>
<path d="M28.321 41V23.5455H32.5398V30.9261H32.7699L38.5398 23.5455H43.5085L37.321 31.3352L43.6193 41H38.5739L34.2273 34.1392L32.5398 36.2699V41H28.321ZM50.0447 41.206C48.8989 41.206 47.9141 40.9716 47.0902 40.5028C46.2711 40.0294 45.639 39.3712 45.1939 38.5284C44.7536 37.6809 44.5334 36.6984 44.5334 35.581C44.5334 34.4588 44.7536 33.4763 45.1939 32.6335C45.639 31.786 46.2711 31.1278 47.0902 30.6591C47.9141 30.1856 48.8989 29.9489 50.0447 29.9489C51.1906 29.9489 52.1731 30.1856 52.9922 30.6591C53.8161 31.1278 54.4482 31.786 54.8885 32.6335C55.3336 33.4763 55.5561 34.4588 55.5561 35.581C55.5561 36.6984 55.3336 37.6809 54.8885 38.5284C54.4482 39.3712 53.8161 40.0294 52.9922 40.5028C52.1731 40.9716 51.1906 41.206 50.0447 41.206ZM50.0661 38.5852C50.4827 38.5852 50.8355 38.4574 51.1243 38.2017C51.4131 37.946 51.6333 37.5909 51.7848 37.1364C51.9411 36.6818 52.0192 36.1562 52.0192 35.5597C52.0192 34.9536 51.9411 34.4233 51.7848 33.9688C51.6333 33.5142 51.4131 33.1591 51.1243 32.9034C50.8355 32.6477 50.4827 32.5199 50.0661 32.5199C49.6352 32.5199 49.2706 32.6477 48.9723 32.9034C48.6787 33.1591 48.4538 33.5142 48.2976 33.9688C48.1461 34.4233 48.0703 34.9536 48.0703 35.5597C48.0703 36.1562 48.1461 36.6818 48.2976 37.1364C48.4538 37.5909 48.6787 37.946 48.9723 38.2017C49.2706 38.4574 49.6352 38.5852 50.0661 38.5852ZM60.8082 34.7784V41H57.3352V30.0909H60.6378V32.0938H60.7585C61 31.4261 61.4119 30.9029 61.9943 30.5241C62.5767 30.1406 63.2704 29.9489 64.0753 29.9489C64.8423 29.9489 65.5076 30.1217 66.071 30.4673C66.6392 30.8082 67.0795 31.2865 67.392 31.902C67.7093 32.5128 67.8655 33.2277 67.8608 34.0469V41H64.3878V34.7287C64.3925 34.1226 64.2386 33.6491 63.9261 33.3082C63.6184 32.9673 63.1899 32.7969 62.6406 32.7969C62.276 32.7969 61.9541 32.8774 61.6747 33.0384C61.4001 33.1946 61.187 33.4195 61.0355 33.7131C60.8887 34.0066 60.813 34.3617 60.8082 34.7784ZM73.484 34.7784V41H70.011V30.0909H73.3136V32.0938H73.4343C73.6758 31.4261 74.0877 30.9029 74.6701 30.5241C75.2525 30.1406 75.9461 29.9489 76.7511 29.9489C77.5181 29.9489 78.1834 30.1217 78.7468 30.4673C79.315 30.8082 79.7553 31.2865 80.0678 31.902C80.3851 32.5128 80.5413 33.2277 80.5366 34.0469V41H77.0636V34.7287C77.0683 34.1226 76.9144 33.6491 76.6019 33.3082C76.2942 32.9673 75.8656 32.7969 75.3164 32.7969C74.9518 32.7969 74.6299 32.8774 74.3505 33.0384C74.0759 33.1946 73.8628 33.4195 73.7113 33.7131C73.5645 34.0066 73.4888 34.3617 73.484 34.7784ZM87.7862 41.206C86.6451 41.206 85.6603 40.9811 84.8317 40.5312C84.0078 40.0767 83.3733 39.4304 82.9283 38.5923C82.4879 37.7495 82.2678 36.7481 82.2678 35.5881C82.2678 34.4612 82.4903 33.4763 82.9354 32.6335C83.3804 31.786 84.0078 31.1278 84.8175 30.6591C85.6271 30.1856 86.5812 29.9489 87.6797 29.9489C88.4562 29.9489 89.1664 30.0696 89.8104 30.3111C90.4543 30.5526 91.0107 30.91 91.4794 31.3835C91.9482 31.857 92.3127 32.4418 92.5732 33.1378C92.8336 33.8291 92.9638 34.6222 92.9638 35.517V36.3835H83.4822V34.3665H89.7322C89.7275 33.9972 89.6399 33.6681 89.4695 33.3793C89.299 33.0904 89.0646 32.8655 88.7663 32.7045C88.4728 32.5388 88.1342 32.456 87.7507 32.456C87.3625 32.456 87.0144 32.5436 86.7067 32.7188C86.3989 32.8892 86.1551 33.1236 85.9751 33.4219C85.7952 33.7154 85.7005 34.0492 85.6911 34.4233V36.4759C85.6911 36.9209 85.7786 37.3116 85.9538 37.6477C86.129 37.9792 86.3776 38.2372 86.6996 38.4219C87.0215 38.6065 87.4051 38.6989 87.8501 38.6989C88.1579 38.6989 88.4373 38.6562 88.6882 38.571C88.9392 38.4858 89.1546 38.3603 89.3345 38.1946C89.5144 38.0289 89.6494 37.8253 89.7393 37.5838L92.9283 37.6761C92.7957 38.3911 92.5045 39.0137 92.0547 39.544C91.6096 40.0696 91.0249 40.4792 90.3004 40.7727C89.576 41.0616 88.7379 41.206 87.7862 41.206ZM99.8299 41.206C98.6793 41.206 97.6921 40.9692 96.8683 40.4957C96.0491 40.0223 95.4194 39.3641 94.979 38.5213C94.5387 37.6738 94.3185 36.6937 94.3185 35.581C94.3185 34.4635 94.5387 33.4834 94.979 32.6406C95.4241 31.7931 96.0562 31.1326 96.8754 30.6591C97.6992 30.1856 98.6817 29.9489 99.8228 29.9489C100.831 29.9489 101.71 30.1312 102.458 30.4957C103.211 30.8603 103.798 31.3764 104.219 32.044C104.645 32.7069 104.87 33.4858 104.894 34.3807H101.648C101.582 33.822 101.392 33.384 101.08 33.0668C100.772 32.7495 100.37 32.5909 99.8725 32.5909C99.4701 32.5909 99.1173 32.7045 98.8143 32.9318C98.5112 33.1544 98.2745 33.4858 98.104 33.9261C97.9383 34.3617 97.8555 34.9015 97.8555 35.5455C97.8555 36.1894 97.9383 36.7339 98.104 37.179C98.2745 37.6193 98.5112 37.9531 98.8143 38.1804C99.1173 38.4029 99.4701 38.5142 99.8725 38.5142C100.194 38.5142 100.479 38.4455 100.725 38.3082C100.976 38.1709 101.182 37.9697 101.343 37.7045C101.504 37.4347 101.605 37.108 101.648 36.7244H104.894C104.861 37.6241 104.636 38.41 104.219 39.0824C103.807 39.7547 103.227 40.2779 102.479 40.652C101.736 41.0213 100.853 41.206 99.8299 41.206ZM112.829 30.0909V32.6477H105.947V30.0909H112.829ZM107.388 27.4773H110.862V37.5696C110.862 37.7827 110.895 37.9555 110.961 38.0881C111.032 38.2159 111.134 38.3082 111.266 38.3651C111.399 38.4171 111.558 38.4432 111.742 38.4432C111.875 38.4432 112.014 38.4313 112.161 38.4077C112.313 38.3793 112.426 38.3556 112.502 38.3366L113.028 40.8438C112.862 40.8911 112.628 40.9503 112.325 41.0213C112.026 41.0923 111.669 41.1373 111.252 41.1562C110.438 41.1941 109.739 41.0994 109.157 40.8722C108.579 40.6402 108.137 40.2803 107.829 39.7926C107.526 39.3049 107.379 38.6918 107.388 37.9531V27.4773Z" fill="#60A5FA"/>
</g>
<defs>
<clipPath id="clip0_21_25">
<rect width="114" height="65" fill="white"/>
</clipPath>
</defs>
</svg>
